<?xml version="1.0" encoding="UTF-8" standalone="no"?>
<svg
   viewBox="0 0 8.00 8.00"
   data-guides="{&quot;vertical&quot;:[],&quot;horizontal&quot;:[]}"
   version="1.1"
   id="svg35"
   sodipodi:docname="magnifier.svg"
   inkscape:version="1.1.2 (0a00cf5339, 2022-02-04)"
   xmlns:inkscape="http://www.inkscape.org/namespaces/inkscape"
   xmlns:sodipodi="http://sodipodi.sourceforge.net/DTD/sodipodi-0.dtd"
   xmlns="http://www.w3.org/2000/svg"
   xmlns:svg="http://www.w3.org/2000/svg">
  <sodipodi:namedview
     id="namedview37"
     pagecolor="#ffffff"
     bordercolor="#666666"
     borderopacity="1.0"
     inkscape:pageshadow="2"
     inkscape:pageopacity="0.0"
     inkscape:pagecheckerboard="true"
     showgrid="false"
     inkscape:zoom="53.599205"
     inkscape:cx="4.113867"
     inkscape:cy="5.6997114"
     inkscape:window-width="1920"
     inkscape:window-height="1126"
     inkscape:window-x="0"
     inkscape:window-y="0"
     inkscape:window-maximized="1"
     inkscape:current-layer="svg35" />
  <defs
     id="defs32" />
  <path
     id="path108"
     style="fill:#f1f6f0;stroke-width:1.19187"
     d="M 5.7951952,0.26522355 A 2.1982655,2.1982655 0 0 0 3.4069114,2.2563008 2.1982655,2.1982655 0 0 0 5.400307,4.6447937 2.1982655,2.1982655 0 0 0 7.7864815,2.651189 2.1982655,2.1982655 0 0 0 5.7951952,0.26522355 Z M 5.7435226,1.0716105 A 1.3024035,1.3024035 0 0 1 6.9226845,2.4844861 1.3024035,1.3024035 0 0 1 5.5095997,3.6659667 1.3024035,1.3024035 0 0 1 4.3283282,2.2505635 1.3024035,1.3024035 0 0 1 5.7435226,1.0716105 Z" />
  <rect
     style="fill:#f1f6f0;fill-opacity:1;stroke-width:0.930001"
     id="rect543"
     width="1.0931709"
     height="5.067234"
     x="5.0714946"
     y="-0.39141625"
     transform="rotate(45.036358)" />
</svg>
