<?xml version="1.0" encoding="UTF-8" standalone="no"?>
<svg
   viewBox="0 0 8.00 8.00"
   data-guides="{&quot;vertical&quot;:[],&quot;horizontal&quot;:[]}"
   version="1.1"
   id="svg35"
   sodipodi:docname="very_happy.svg"
   inkscape:version="1.4.3 (0d15f75, 2025-12-25)"
   xmlns:inkscape="http://www.inkscape.org/namespaces/inkscape"
   xmlns:sodipodi="http://sodipodi.sourceforge.net/DTD/sodipodi-0.dtd"
   xmlns="http://www.w3.org/2000/svg"
   xmlns:svg="http://www.w3.org/2000/svg">
  <sodipodi:namedview
     id="namedview37"
     pagecolor="#ffffff"
     bordercolor="#666666"
     borderopacity="1.0"
     inkscape:pageshadow="2"
     inkscape:pageopacity="0.0"
     inkscape:pagecheckerboard="true"
     showgrid="true"
     inkscape:zoom="45.254834"
     inkscape:cx="7.8776115"
     inkscape:cy="0.82864076"
     inkscape:window-width="2090"
     inkscape:window-height="1211"
     inkscape:window-x="2789"
     inkscape:window-y="55"
     inkscape:window-maximized="0"
     inkscape:current-layer="g7"
     inkscape:showpageshadow="2"
     inkscape:deskcolor="#d1d1d1">
    <inkscape:grid
       id="grid7"
       units="px"
       originx="0"
       originy="0"
       spacingx="0.5"
       spacingy="0.5"
       empcolor="#0099e5"
       empopacity="0.30196078"
       color="#0099e5"
       opacity="0.14901961"
       empspacing="5"
       enabled="true"
       visible="true" />
  </sodipodi:namedview>
  <defs
     id="defs32">
    <inkscape:path-effect
       effect="mirror_symmetry"
       start_point="4,0"
       end_point="4,8"
       center_point="4,4"
       id="path-effect7"
       is_visible="true"
       lpeversion="1.2"
       lpesatellites=""
       mode="vertical"
       discard_orig_path="false"
       fuse_paths="false"
       oposite_fuse="false"
       split_items="false"
       split_open="false"
       link_styles="false" />
  </defs>
  <ellipse
     style="fill:#89a477;fill-opacity:1"
     id="path1"
     cx="4"
     cy="3.9813302"
     rx="4"
     ry="3.9813302" />
  <g
     id="g7"
     inkscape:path-effect="#path-effect7">
    <path
       style="fill:#000000;fill-opacity:1"
       id="path6"
       sodipodi:type="arc"
       sodipodi:cx="2.2614679"
       sodipodi:cy="2.87727"
       sodipodi:rx="0.6487748"
       sodipodi:ry="0.65344226"
       d="m 2.9102427,2.87727 c 0,0.3608862 -0.2904663,0.6534422 -0.6487748,0.6534422 -0.3583084,0 -0.6487748,-0.292556 -0.6487748,-0.6534422 0,-0.3608862 0.2904664,-0.6534423 0.6487748,-0.6534423 0.3583085,0 0.6487748,0.2925561 0.6487748,0.6534423 z m 2.1795146,0 c 0,0.3608862 0.2904663,0.6534422 0.6487748,0.6534422 0.3583084,0 0.6487748,-0.292556 0.6487748,-0.6534422 0,-0.3608862 -0.2904664,-0.6534423 -0.6487748,-0.6534423 -0.3583085,0 -0.6487748,0.2925561 -0.6487748,0.6534423 z" />
    <path
       style="fill:#000000;fill-opacity:1"
       d="M 4,5 H 1.5 c 0,0 0.2697326,1.022451 1,1.5 C 3.2645995,7 4,7 4,7 Z M 4,5 H 6.5 C 6.5,5 6.2302674,6.022451 5.5,6.5 4.7354005,7 4,7 4,7 Z"
       id="path7"
       sodipodi:nodetypes="ccscc"
       inkscape:original-d="M 4,5 H 1.5 c 0,0 0.2697326,1.022451 1,1.5 C 3.2645995,7 4,7 4,7 Z" />
  </g>
</svg>
